<mxfile host="app.diagrams.net" agent="Mozilla/5.0 (Macintosh; Intel Mac OS X 10_15_7) AppleWebKit/537.36 (KHTML, like Gecko) Chrome/131.0.0.0 Safari/537.36" version="25.0.3" pages="3">
  <diagram name="bidnobid" id="13e1069c-82ec-6db2-03f1-153e76fe0fe0">
    <mxGraphModel dx="1306" dy="716" grid="1" gridSize="10" guides="1" tooltips="1" connect="1" arrows="1" fold="1" page="1" pageScale="1" pageWidth="1100" pageHeight="850" background="none" math="0" shadow="0">
      <root>
        <mxCell id="0" />
        <mxCell id="1" parent="0" />
        <mxCell id="7baba1c4bc27f4b0-2" value="Nobid" style="shape=umlLifeline;perimeter=lifelinePerimeter;whiteSpace=wrap;html=1;container=1;collapsible=0;recursiveResize=0;outlineConnect=0;rounded=1;shadow=0;comic=0;labelBackgroundColor=none;strokeWidth=1;fontFamily=Verdana;fontSize=12;align=center;" parent="1" vertex="1">
          <mxGeometry x="240" y="80" width="100" height="580" as="geometry" />
        </mxCell>
        <mxCell id="7baba1c4bc27f4b0-10" value="" style="html=1;points=[];perimeter=orthogonalPerimeter;rounded=0;shadow=0;comic=0;labelBackgroundColor=none;strokeWidth=1;fontFamily=Verdana;fontSize=12;align=center;" parent="7baba1c4bc27f4b0-2" vertex="1">
          <mxGeometry x="45" y="100" width="10" height="200" as="geometry" />
        </mxCell>
        <mxCell id="ThMRLsog6im0dnJ0EU9H-10" value="return" style="html=1;verticalAlign=bottom;endArrow=open;dashed=1;endSize=8;labelBackgroundColor=none;fontFamily=Verdana;fontSize=12;" parent="7baba1c4bc27f4b0-2" source="7baba1c4bc27f4b0-3" edge="1">
          <mxGeometry x="0.0353" y="-20" relative="1" as="geometry">
            <mxPoint x="-80" y="560" as="targetPoint" />
            <mxPoint x="200" y="560" as="sourcePoint" />
            <mxPoint x="1" as="offset" />
          </mxGeometry>
        </mxCell>
        <mxCell id="7baba1c4bc27f4b0-3" value="Bidder/Logging" style="shape=umlLifeline;perimeter=lifelinePerimeter;whiteSpace=wrap;html=1;container=1;collapsible=0;recursiveResize=0;outlineConnect=0;rounded=1;shadow=0;comic=0;labelBackgroundColor=none;strokeWidth=1;fontFamily=Verdana;fontSize=12;align=center;" parent="1" vertex="1">
          <mxGeometry x="380" y="80" width="100" height="580" as="geometry" />
        </mxCell>
        <mxCell id="7baba1c4bc27f4b0-22" value="" style="html=1;points=[];perimeter=orthogonalPerimeter;rounded=0;shadow=0;comic=0;labelBackgroundColor=none;strokeWidth=1;fontFamily=Verdana;fontSize=12;align=center;" parent="7baba1c4bc27f4b0-3" vertex="1">
          <mxGeometry x="45" y="360" width="10" height="200" as="geometry" />
        </mxCell>
        <mxCell id="7baba1c4bc27f4b0-39" value="&lt;div style=&quot;color: rgb(255, 255, 255); background-color: rgb(0, 0, 0); font-family: Menlo, Monaco, &amp;quot;Courier New&amp;quot;, monospace; line-height: 18px; white-space-collapse: preserve;&quot;&gt;&lt;span style=&quot;color: #dcdcaa;&quot;&gt;LogBid&lt;/span&gt;&lt;/div&gt;" style="html=1;verticalAlign=bottom;endArrow=block;labelBackgroundColor=none;fontFamily=Verdana;fontSize=12;elbow=vertical;edgeStyle=orthogonalEdgeStyle;curved=1;entryX=1;entryY=0.286;entryPerimeter=0;exitX=1.038;exitY=0.345;exitPerimeter=0;" parent="7baba1c4bc27f4b0-3" edge="1">
          <mxGeometry relative="1" as="geometry">
            <mxPoint x="55.003333333333444" y="380" as="sourcePoint" />
            <mxPoint x="60.003333333333444" y="418.33333333333337" as="targetPoint" />
            <Array as="points">
              <mxPoint x="109.66999999999996" y="380" />
              <mxPoint x="109.66999999999996" y="418" />
            </Array>
          </mxGeometry>
        </mxCell>
        <mxCell id="7baba1c4bc27f4b0-4" value="filter/nobid" style="shape=umlLifeline;perimeter=lifelinePerimeter;whiteSpace=wrap;html=1;container=1;collapsible=0;recursiveResize=0;outlineConnect=0;rounded=1;shadow=0;comic=0;labelBackgroundColor=none;strokeWidth=1;fontFamily=Verdana;fontSize=12;align=center;" parent="1" vertex="1">
          <mxGeometry x="530" y="80" width="100" height="580" as="geometry" />
        </mxCell>
        <mxCell id="7baba1c4bc27f4b0-16" value="" style="html=1;points=[];perimeter=orthogonalPerimeter;rounded=0;shadow=0;comic=0;labelBackgroundColor=none;strokeWidth=1;fontFamily=Verdana;fontSize=12;align=center;" parent="7baba1c4bc27f4b0-4" vertex="1">
          <mxGeometry x="45" y="140" width="10" height="100" as="geometry" />
        </mxCell>
        <mxCell id="7baba1c4bc27f4b0-5" value="LogImpression" style="shape=umlLifeline;perimeter=lifelinePerimeter;whiteSpace=wrap;html=1;container=1;collapsible=0;recursiveResize=0;outlineConnect=0;rounded=1;shadow=0;comic=0;labelBackgroundColor=none;strokeWidth=1;fontFamily=Verdana;fontSize=12;align=center;" parent="1" vertex="1">
          <mxGeometry x="680" y="80" width="100" height="580" as="geometry" />
        </mxCell>
        <mxCell id="7baba1c4bc27f4b0-19" value="" style="html=1;points=[];perimeter=orthogonalPerimeter;rounded=0;shadow=0;comic=0;labelBackgroundColor=none;strokeWidth=1;fontFamily=Verdana;fontSize=12;align=center;" parent="7baba1c4bc27f4b0-5" vertex="1">
          <mxGeometry x="45" y="150" width="10" height="70" as="geometry" />
        </mxCell>
        <mxCell id="7baba1c4bc27f4b0-25" value="" style="html=1;points=[];perimeter=orthogonalPerimeter;rounded=0;shadow=0;comic=0;labelBackgroundColor=none;strokeColor=#000000;strokeWidth=1;fillColor=#FFFFFF;fontFamily=Verdana;fontSize=12;fontColor=#000000;align=center;" parent="7baba1c4bc27f4b0-5" vertex="1">
          <mxGeometry x="45" y="490" width="10" height="30" as="geometry" />
        </mxCell>
        <mxCell id="7baba1c4bc27f4b0-8" value="Service" style="shape=umlLifeline;perimeter=lifelinePerimeter;whiteSpace=wrap;html=1;container=1;collapsible=0;recursiveResize=0;outlineConnect=0;rounded=1;shadow=0;comic=0;labelBackgroundColor=none;strokeWidth=1;fontFamily=Verdana;fontSize=12;align=center;" parent="1" vertex="1">
          <mxGeometry x="100" y="80" width="100" height="590" as="geometry" />
        </mxCell>
        <mxCell id="7baba1c4bc27f4b0-9" value="" style="html=1;points=[];perimeter=orthogonalPerimeter;rounded=0;shadow=0;comic=0;labelBackgroundColor=none;strokeWidth=1;fontFamily=Verdana;fontSize=12;align=center;" parent="7baba1c4bc27f4b0-8" vertex="1">
          <mxGeometry x="45" y="100" width="10" height="490" as="geometry" />
        </mxCell>
        <mxCell id="ThMRLsog6im0dnJ0EU9H-11" value="return" style="html=1;verticalAlign=bottom;endArrow=open;dashed=1;endSize=8;labelBackgroundColor=none;fontFamily=Verdana;fontSize=12;edgeStyle=elbowEdgeStyle;elbow=vertical;" parent="7baba1c4bc27f4b0-8" edge="1">
          <mxGeometry relative="1" as="geometry">
            <mxPoint x="55" y="299" as="targetPoint" />
            <Array as="points">
              <mxPoint x="110" y="299" />
              <mxPoint x="90" y="279" />
              <mxPoint x="130" y="259" />
              <mxPoint x="160" y="259" />
            </Array>
            <mxPoint x="185" y="299" as="sourcePoint" />
          </mxGeometry>
        </mxCell>
        <mxCell id="7baba1c4bc27f4b0-17" value="&lt;div style=&quot;color: rgb(255, 255, 255); background-color: rgb(0, 0, 0); font-family: Menlo, Monaco, &amp;quot;Courier New&amp;quot;, monospace; line-height: 18px; white-space-collapse: preserve;&quot;&gt;&lt;span style=&quot;color: #dcdcaa;&quot;&gt;NewNoBid&lt;/span&gt;&lt;/div&gt;" style="html=1;verticalAlign=bottom;endArrow=block;labelBackgroundColor=none;fontFamily=Verdana;fontSize=12;edgeStyle=elbowEdgeStyle;elbow=vertical;" parent="1" edge="1">
          <mxGeometry relative="1" as="geometry">
            <mxPoint x="297" y="220" as="sourcePoint" />
            <Array as="points">
              <mxPoint x="457" y="220" />
            </Array>
            <mxPoint x="582" y="220" as="targetPoint" />
          </mxGeometry>
        </mxCell>
        <mxCell id="7baba1c4bc27f4b0-20" value="&lt;span style=&quot;color: rgb(220, 220, 170); font-family: Menlo, Monaco, &amp;quot;Courier New&amp;quot;, monospace; white-space-collapse: preserve; background-color: rgb(0, 0, 0);&quot;&gt;LogImpressionAndAdSpot&lt;/span&gt;" style="html=1;verticalAlign=bottom;endArrow=block;entryX=0;entryY=0;labelBackgroundColor=none;fontFamily=Verdana;fontSize=12;edgeStyle=elbowEdgeStyle;elbow=vertical;" parent="1" source="7baba1c4bc27f4b0-16" target="7baba1c4bc27f4b0-19" edge="1">
          <mxGeometry x="0.0625" y="20" relative="1" as="geometry">
            <mxPoint x="650" y="230" as="sourcePoint" />
            <mxPoint as="offset" />
          </mxGeometry>
        </mxCell>
        <mxCell id="7baba1c4bc27f4b0-21" value="return" style="html=1;verticalAlign=bottom;endArrow=open;dashed=1;endSize=8;labelBackgroundColor=none;fontFamily=Verdana;fontSize=12;edgeStyle=elbowEdgeStyle;elbow=vertical;" parent="1" source="7baba1c4bc27f4b0-19" target="7baba1c4bc27f4b0-16" edge="1">
          <mxGeometry relative="1" as="geometry">
            <mxPoint x="650" y="306" as="targetPoint" />
            <Array as="points">
              <mxPoint x="650" y="300" />
              <mxPoint x="630" y="280" />
              <mxPoint x="670" y="260" />
              <mxPoint x="700" y="260" />
            </Array>
          </mxGeometry>
        </mxCell>
        <mxCell id="7baba1c4bc27f4b0-23" value="&lt;div style=&quot;color: rgb(255, 255, 255); background-color: rgb(0, 0, 0); font-family: Menlo, Monaco, &amp;quot;Courier New&amp;quot;, monospace; line-height: 18px; white-space-collapse: preserve;&quot;&gt;&lt;br&gt;&lt;/div&gt;" style="html=1;verticalAlign=bottom;endArrow=block;entryX=0;entryY=0;labelBackgroundColor=none;fontFamily=Verdana;fontSize=12;" parent="1" source="7baba1c4bc27f4b0-9" target="7baba1c4bc27f4b0-22" edge="1">
          <mxGeometry relative="1" as="geometry">
            <mxPoint x="510" y="420" as="sourcePoint" />
          </mxGeometry>
        </mxCell>
        <mxCell id="ThMRLsog6im0dnJ0EU9H-2" value="&lt;div style=&quot;color: rgb(255, 255, 255); background-color: rgb(0, 0, 0); font-family: Menlo, Monaco, &amp;quot;Courier New&amp;quot;, monospace; font-size: 12px; line-height: 18px; white-space-collapse: preserve;&quot;&gt;&lt;span style=&quot;color: #dcdcaa;&quot;&gt;Handle&lt;/span&gt;&lt;/div&gt;" style="edgeLabel;html=1;align=center;verticalAlign=middle;resizable=0;points=[];" parent="7baba1c4bc27f4b0-23" vertex="1" connectable="0">
          <mxGeometry x="-0.2" y="3" relative="1" as="geometry">
            <mxPoint x="-51" y="-12" as="offset" />
          </mxGeometry>
        </mxCell>
        <mxCell id="7baba1c4bc27f4b0-26" value="&lt;div style=&quot;color: rgb(255, 255, 255); background-color: rgb(0, 0, 0); font-family: Menlo, Monaco, &amp;quot;Courier New&amp;quot;, monospace; line-height: 18px; white-space-collapse: preserve;&quot;&gt;&lt;span style=&quot;color: #dcdcaa;&quot;&gt;LogImpressionAndAdSpot&lt;/span&gt;&lt;/div&gt;" style="html=1;verticalAlign=bottom;endArrow=block;entryX=0;entryY=0;labelBackgroundColor=none;fontFamily=Verdana;fontSize=12;" parent="1" source="7baba1c4bc27f4b0-22" target="7baba1c4bc27f4b0-25" edge="1">
          <mxGeometry x="0.4828" y="10" relative="1" as="geometry">
            <mxPoint x="930" y="340" as="sourcePoint" />
            <mxPoint as="offset" />
          </mxGeometry>
        </mxCell>
        <mxCell id="7baba1c4bc27f4b0-27" value="return" style="html=1;verticalAlign=bottom;endArrow=open;dashed=1;endSize=8;exitX=0;exitY=0.95;labelBackgroundColor=none;fontFamily=Verdana;fontSize=12;" parent="1" source="7baba1c4bc27f4b0-25" target="7baba1c4bc27f4b0-22" edge="1">
          <mxGeometry relative="1" as="geometry">
            <mxPoint x="930" y="416" as="targetPoint" />
          </mxGeometry>
        </mxCell>
        <mxCell id="7baba1c4bc27f4b0-11" value="&lt;div style=&quot;color: rgb(255, 255, 255); background-color: rgb(0, 0, 0); font-family: Menlo, Monaco, &amp;quot;Courier New&amp;quot;, monospace; line-height: 18px; white-space-collapse: preserve;&quot;&gt;&lt;span style=&quot;color: #dcdcaa;&quot;&gt;logTransaction&lt;/span&gt;&lt;/div&gt;" style="html=1;verticalAlign=bottom;endArrow=block;entryX=0;entryY=0;labelBackgroundColor=none;fontFamily=Verdana;fontSize=12;edgeStyle=elbowEdgeStyle;elbow=vertical;" parent="1" source="7baba1c4bc27f4b0-9" target="7baba1c4bc27f4b0-10" edge="1">
          <mxGeometry relative="1" as="geometry">
            <mxPoint x="220" y="190" as="sourcePoint" />
            <mxPoint as="offset" />
          </mxGeometry>
        </mxCell>
        <mxCell id="ThMRLsog6im0dnJ0EU9H-1" value="&lt;div style=&quot;color: rgb(255, 255, 255); background-color: rgb(0, 0, 0); font-family: Menlo, Monaco, &amp;quot;Courier New&amp;quot;, monospace; line-height: 18px; white-space-collapse: preserve;&quot;&gt;&lt;span style=&quot;color: rgb(220, 220, 170);&quot;&gt;NewPerfMessage&lt;/span&gt;&lt;/div&gt;" style="html=1;verticalAlign=bottom;endArrow=block;labelBackgroundColor=none;fontFamily=Verdana;fontSize=12;elbow=vertical;edgeStyle=orthogonalEdgeStyle;curved=1;entryX=1;entryY=0.286;entryPerimeter=0;exitX=1.038;exitY=0.345;exitPerimeter=0;" parent="1" edge="1">
          <mxGeometry x="-0.0932" y="25" relative="1" as="geometry">
            <mxPoint x="440.00333333333344" y="520" as="sourcePoint" />
            <mxPoint x="445.00333333333344" y="558.3333333333334" as="targetPoint" />
            <Array as="points">
              <mxPoint x="494.66999999999996" y="520" />
              <mxPoint x="494.66999999999996" y="558" />
            </Array>
            <mxPoint as="offset" />
          </mxGeometry>
        </mxCell>
        <mxCell id="ThMRLsog6im0dnJ0EU9H-3" value="return" style="html=1;verticalAlign=bottom;endArrow=open;dashed=1;endSize=8;labelBackgroundColor=none;fontFamily=Verdana;fontSize=12;" parent="1" edge="1">
          <mxGeometry relative="1" as="geometry">
            <mxPoint x="305" y="320" as="targetPoint" />
            <mxPoint x="585" y="320" as="sourcePoint" />
          </mxGeometry>
        </mxCell>
        <mxCell id="ThMRLsog6im0dnJ0EU9H-6" value="&lt;span style=&quot;color: rgb(220, 220, 170); font-family: Menlo, Monaco, &amp;quot;Courier New&amp;quot;, monospace; white-space-collapse: preserve; background-color: rgb(0, 0, 0);&quot;&gt;Log&lt;/span&gt;" style="html=1;verticalAlign=bottom;endArrow=block;labelBackgroundColor=none;fontFamily=Verdana;fontSize=12;edgeStyle=elbowEdgeStyle;elbow=vertical;" parent="1" target="ThMRLsog6im0dnJ0EU9H-8" edge="1">
          <mxGeometry x="0.0554" y="10" relative="1" as="geometry">
            <mxPoint x="300" y="360" as="sourcePoint" />
            <mxPoint x="1" as="offset" />
            <mxPoint x="1029.5" y="360" as="targetPoint" />
            <Array as="points">
              <mxPoint x="690" y="360" />
              <mxPoint x="775" y="360" />
            </Array>
          </mxGeometry>
        </mxCell>
        <mxCell id="ThMRLsog6im0dnJ0EU9H-8" value="Transaction.Logger" style="shape=umlLifeline;perimeter=lifelinePerimeter;whiteSpace=wrap;html=1;container=1;collapsible=0;recursiveResize=0;outlineConnect=0;rounded=1;shadow=0;comic=0;labelBackgroundColor=none;strokeWidth=1;fontFamily=Verdana;fontSize=12;align=center;" parent="1" vertex="1">
          <mxGeometry x="820" y="80" width="120" height="580" as="geometry" />
        </mxCell>
        <mxCell id="ThMRLsog6im0dnJ0EU9H-12" value="&lt;span style=&quot;color: rgb(220, 220, 170); font-family: Menlo, Monaco, &amp;quot;Courier New&amp;quot;, monospace; white-space-collapse: preserve; background-color: rgb(0, 0, 0);&quot;&gt;Log&lt;/span&gt;" style="html=1;verticalAlign=bottom;endArrow=block;labelBackgroundColor=none;fontFamily=Verdana;fontSize=12;edgeStyle=elbowEdgeStyle;elbow=vertical;" parent="1" target="ThMRLsog6im0dnJ0EU9H-8" edge="1">
          <mxGeometry x="-0.1326" y="10" relative="1" as="geometry">
            <mxPoint x="440" y="630" as="sourcePoint" />
            <mxPoint as="offset" />
            <mxPoint x="889.5" y="650" as="targetPoint" />
            <Array as="points">
              <mxPoint x="790" y="630" />
              <mxPoint x="440" y="620" />
              <mxPoint x="635" y="650" />
            </Array>
          </mxGeometry>
        </mxCell>
      </root>
    </mxGraphModel>
  </diagram>
  <diagram name="trackingpixel" id="ceHV_ugPYqPjhiaGhMdp">
    <mxGraphModel dx="2406" dy="716" grid="1" gridSize="10" guides="1" tooltips="1" connect="1" arrows="1" fold="1" page="1" pageScale="1" pageWidth="1100" pageHeight="850" background="none" math="0" shadow="0">
      <root>
        <mxCell id="LXJ5yl4IXgk1Zmkm7OdU-0" />
        <mxCell id="LXJ5yl4IXgk1Zmkm7OdU-1" parent="LXJ5yl4IXgk1Zmkm7OdU-0" />
        <mxCell id="LXJ5yl4IXgk1Zmkm7OdU-2" value="Bidder" style="shape=umlLifeline;perimeter=lifelinePerimeter;whiteSpace=wrap;html=1;container=1;collapsible=0;recursiveResize=0;outlineConnect=0;rounded=1;shadow=0;comic=0;labelBackgroundColor=none;strokeWidth=1;fontFamily=Verdana;fontSize=12;align=center;" vertex="1" parent="LXJ5yl4IXgk1Zmkm7OdU-1">
          <mxGeometry x="240" y="80" width="100" height="580" as="geometry" />
        </mxCell>
        <mxCell id="LXJ5yl4IXgk1Zmkm7OdU-3" value="" style="html=1;points=[];perimeter=orthogonalPerimeter;rounded=0;shadow=0;comic=0;labelBackgroundColor=none;strokeWidth=1;fontFamily=Verdana;fontSize=12;align=center;" vertex="1" parent="LXJ5yl4IXgk1Zmkm7OdU-2">
          <mxGeometry x="45" y="100" width="10" height="440" as="geometry" />
        </mxCell>
        <mxCell id="LXJ5yl4IXgk1Zmkm7OdU-5" value="Pixel" style="shape=umlLifeline;perimeter=lifelinePerimeter;whiteSpace=wrap;html=1;container=1;collapsible=0;recursiveResize=0;outlineConnect=0;rounded=1;shadow=0;comic=0;labelBackgroundColor=none;strokeWidth=1;fontFamily=Verdana;fontSize=12;align=center;" vertex="1" parent="LXJ5yl4IXgk1Zmkm7OdU-1">
          <mxGeometry x="680" y="80" width="100" height="580" as="geometry" />
        </mxCell>
        <mxCell id="LXJ5yl4IXgk1Zmkm7OdU-6" value="" style="html=1;points=[];perimeter=orthogonalPerimeter;rounded=0;shadow=0;comic=0;labelBackgroundColor=none;strokeWidth=1;fontFamily=Verdana;fontSize=12;align=center;" vertex="1" parent="LXJ5yl4IXgk1Zmkm7OdU-5">
          <mxGeometry x="45" y="220" width="10" height="240" as="geometry" />
        </mxCell>
        <mxCell id="LXJ5yl4IXgk1Zmkm7OdU-7" value="&lt;div style=&quot;color: rgb(255, 255, 255); background-color: rgb(0, 0, 0); font-family: Menlo, Monaco, &amp;quot;Courier New&amp;quot;, monospace; line-height: 18px; white-space-collapse: preserve;&quot;&gt;&lt;div style=&quot;line-height: 18px;&quot;&gt;&lt;span style=&quot;color: #dcdcaa;&quot;&gt;AddLinkParams&lt;/span&gt;&lt;/div&gt;&lt;/div&gt;" style="html=1;verticalAlign=bottom;endArrow=block;labelBackgroundColor=none;fontFamily=Verdana;fontSize=12;elbow=vertical;edgeStyle=orthogonalEdgeStyle;curved=1;entryX=1;entryY=0.286;entryPerimeter=0;exitX=1.038;exitY=0.345;exitPerimeter=0;" edge="1" parent="LXJ5yl4IXgk1Zmkm7OdU-5">
          <mxGeometry x="-0.2334" y="10" relative="1" as="geometry">
            <mxPoint x="55.003333333333444" y="250" as="sourcePoint" />
            <mxPoint x="60.003333333333444" y="288.33333333333337" as="targetPoint" />
            <Array as="points">
              <mxPoint x="109.66999999999996" y="250" />
              <mxPoint x="109.66999999999996" y="288" />
            </Array>
            <mxPoint x="-10" y="-10" as="offset" />
          </mxGeometry>
        </mxCell>
        <mxCell id="ivEprQYZ28UPZhDatyNq-1" value="return" style="html=1;verticalAlign=bottom;endArrow=open;dashed=1;endSize=8;labelBackgroundColor=none;fontFamily=Verdana;fontSize=12;edgeStyle=elbowEdgeStyle;elbow=vertical;" edge="1" parent="LXJ5yl4IXgk1Zmkm7OdU-5">
          <mxGeometry relative="1" as="geometry">
            <mxPoint x="-90.00000000000004" y="460" as="targetPoint" />
            <Array as="points">
              <mxPoint x="-35.00000000000006" y="460" />
              <mxPoint x="-55.00000000000004" y="440" />
              <mxPoint x="-15.000000000000057" y="420" />
              <mxPoint x="14.999999999999943" y="420" />
            </Array>
            <mxPoint x="39.99999999999994" y="460" as="sourcePoint" />
          </mxGeometry>
        </mxCell>
        <mxCell id="LXJ5yl4IXgk1Zmkm7OdU-8" value="User" style="shape=umlLifeline;perimeter=lifelinePerimeter;whiteSpace=wrap;html=1;container=1;collapsible=0;recursiveResize=0;outlineConnect=0;rounded=1;shadow=0;comic=0;labelBackgroundColor=none;strokeWidth=1;fontFamily=Verdana;fontSize=12;align=center;" vertex="1" parent="LXJ5yl4IXgk1Zmkm7OdU-1">
          <mxGeometry x="-50" y="80" width="100" height="800" as="geometry" />
        </mxCell>
        <mxCell id="LXJ5yl4IXgk1Zmkm7OdU-9" value="" style="html=1;points=[];perimeter=orthogonalPerimeter;rounded=0;shadow=0;comic=0;labelBackgroundColor=none;strokeWidth=1;fontFamily=Verdana;fontSize=12;align=center;" vertex="1" parent="LXJ5yl4IXgk1Zmkm7OdU-8">
          <mxGeometry x="45" y="70" width="10" height="730" as="geometry" />
        </mxCell>
        <mxCell id="ivEprQYZ28UPZhDatyNq-5" value="&lt;div style=&quot;background-color: rgb(0, 0, 0); font-family: Menlo, Monaco, &amp;quot;Courier New&amp;quot;, monospace; line-height: 18px; white-space-collapse: preserve;&quot;&gt;&lt;font color=&quot;#dcdcaa&quot;&gt;GET&lt;/font&gt;&lt;/div&gt;" style="html=1;verticalAlign=bottom;endArrow=block;labelBackgroundColor=none;fontFamily=Verdana;fontSize=12;edgeStyle=elbowEdgeStyle;elbow=vertical;" edge="1" parent="LXJ5yl4IXgk1Zmkm7OdU-8" target="LXJ5yl4IXgk1Zmkm7OdU-13">
          <mxGeometry relative="1" as="geometry">
            <mxPoint x="55" y="90" as="sourcePoint" />
            <mxPoint as="offset" />
            <mxPoint x="185" y="90" as="targetPoint" />
          </mxGeometry>
        </mxCell>
        <mxCell id="ivEprQYZ28UPZhDatyNq-6" value="Response" style="html=1;verticalAlign=bottom;endArrow=open;dashed=1;endSize=8;labelBackgroundColor=none;fontFamily=Verdana;fontSize=12;edgeStyle=elbowEdgeStyle;elbow=vertical;" edge="1" parent="LXJ5yl4IXgk1Zmkm7OdU-8" source="LXJ5yl4IXgk1Zmkm7OdU-13">
          <mxGeometry relative="1" as="geometry">
            <mxPoint x="55" y="550" as="targetPoint" />
            <Array as="points">
              <mxPoint x="110" y="550" />
              <mxPoint x="90" y="530" />
              <mxPoint x="130" y="510" />
              <mxPoint x="160" y="510" />
            </Array>
            <mxPoint x="185" y="550" as="sourcePoint" />
          </mxGeometry>
        </mxCell>
        <mxCell id="LXJ5yl4IXgk1Zmkm7OdU-10" value="Session" style="shape=umlLifeline;perimeter=lifelinePerimeter;whiteSpace=wrap;html=1;container=1;collapsible=0;recursiveResize=0;outlineConnect=0;rounded=1;shadow=0;comic=0;labelBackgroundColor=none;strokeWidth=1;fontFamily=Verdana;fontSize=12;align=center;" vertex="1" parent="LXJ5yl4IXgk1Zmkm7OdU-1">
          <mxGeometry x="510" y="80" width="140" height="580" as="geometry" />
        </mxCell>
        <mxCell id="LXJ5yl4IXgk1Zmkm7OdU-12" value="" style="html=1;points=[];perimeter=orthogonalPerimeter;rounded=0;shadow=0;comic=0;labelBackgroundColor=none;strokeColor=#000000;strokeWidth=1;fillColor=#FFFFFF;fontFamily=Verdana;fontSize=12;fontColor=#000000;align=center;" vertex="1" parent="LXJ5yl4IXgk1Zmkm7OdU-10">
          <mxGeometry x="65" y="340" width="10" height="80" as="geometry" />
        </mxCell>
        <mxCell id="LXJ5yl4IXgk1Zmkm7OdU-19" value="&lt;div style=&quot;color: rgb(255, 255, 255); background-color: rgb(0, 0, 0); font-family: Menlo, Monaco, &amp;quot;Courier New&amp;quot;, monospace; line-height: 18px; white-space-collapse: preserve;&quot;&gt;&lt;br&gt;&lt;/div&gt;" style="html=1;verticalAlign=bottom;endArrow=block;labelBackgroundColor=none;fontFamily=Verdana;fontSize=12;entryX=0.2;entryY=0.004;entryDx=0;entryDy=0;entryPerimeter=0;" edge="1" parent="LXJ5yl4IXgk1Zmkm7OdU-10" target="LXJ5yl4IXgk1Zmkm7OdU-6">
          <mxGeometry relative="1" as="geometry">
            <mxPoint x="70" y="221" as="sourcePoint" />
            <mxPoint x="-109.99999999999999" y="220" as="targetPoint" />
          </mxGeometry>
        </mxCell>
        <mxCell id="LXJ5yl4IXgk1Zmkm7OdU-20" value="&lt;div style=&quot;color: rgb(255, 255, 255); background-color: rgb(0, 0, 0); font-family: Menlo, Monaco, &amp;quot;Courier New&amp;quot;, monospace; font-size: 12px; line-height: 18px; white-space-collapse: preserve;&quot;&gt;&lt;div style=&quot;line-height: 18px;&quot;&gt;&lt;span style=&quot;color: #dcdcaa;&quot;&gt;BuildLinkParams&lt;/span&gt;&lt;/div&gt;&lt;/div&gt;" style="edgeLabel;html=1;align=center;verticalAlign=middle;resizable=0;points=[];" vertex="1" connectable="0" parent="LXJ5yl4IXgk1Zmkm7OdU-19">
          <mxGeometry x="-0.2" y="3" relative="1" as="geometry">
            <mxPoint x="10" y="-23" as="offset" />
          </mxGeometry>
        </mxCell>
        <mxCell id="LXJ5yl4IXgk1Zmkm7OdU-26" value="&lt;div style=&quot;color: rgb(255, 255, 255); background-color: rgb(0, 0, 0); font-family: Menlo, Monaco, &amp;quot;Courier New&amp;quot;, monospace; line-height: 18px; white-space-collapse: preserve;&quot;&gt;&lt;span style=&quot;color: #dcdcaa;&quot;&gt;BuildMarkupWinURL&lt;/span&gt;&lt;/div&gt;" style="html=1;verticalAlign=bottom;endArrow=block;labelBackgroundColor=none;fontFamily=Verdana;fontSize=12;edgeStyle=elbowEdgeStyle;elbow=vertical;" edge="1" parent="LXJ5yl4IXgk1Zmkm7OdU-10" target="LXJ5yl4IXgk1Zmkm7OdU-10">
          <mxGeometry x="0.4644" y="20" relative="1" as="geometry">
            <mxPoint x="40" y="180" as="sourcePoint" />
            <mxPoint as="offset" />
            <mxPoint x="59.49999999999996" y="180" as="targetPoint" />
            <Array as="points">
              <mxPoint x="-79.99999999999999" y="180" />
              <mxPoint x="74.99999999999996" y="180" />
            </Array>
          </mxGeometry>
        </mxCell>
        <mxCell id="LXJ5yl4IXgk1Zmkm7OdU-13" value="Publisher" style="shape=umlLifeline;perimeter=lifelinePerimeter;whiteSpace=wrap;html=1;container=1;collapsible=0;recursiveResize=0;outlineConnect=0;rounded=1;shadow=0;comic=0;labelBackgroundColor=none;strokeWidth=1;fontFamily=Verdana;fontSize=12;align=center;" vertex="1" parent="LXJ5yl4IXgk1Zmkm7OdU-1">
          <mxGeometry x="100" y="80" width="100" height="590" as="geometry" />
        </mxCell>
        <mxCell id="LXJ5yl4IXgk1Zmkm7OdU-14" value="" style="html=1;points=[];perimeter=orthogonalPerimeter;rounded=0;shadow=0;comic=0;labelBackgroundColor=none;strokeWidth=1;fontFamily=Verdana;fontSize=12;align=center;" vertex="1" parent="LXJ5yl4IXgk1Zmkm7OdU-13">
          <mxGeometry x="45" y="70" width="10" height="520" as="geometry" />
        </mxCell>
        <mxCell id="LXJ5yl4IXgk1Zmkm7OdU-23" value="&lt;div style=&quot;color: rgb(255, 255, 255); background-color: rgb(0, 0, 0); font-family: Menlo, Monaco, &amp;quot;Courier New&amp;quot;, monospace; line-height: 18px; white-space-collapse: preserve;&quot;&gt;&lt;span style=&quot;color: #dcdcaa;&quot;&gt;bidRequest&lt;/span&gt;&lt;/div&gt;" style="html=1;verticalAlign=bottom;endArrow=block;entryX=0;entryY=0;labelBackgroundColor=none;fontFamily=Verdana;fontSize=12;edgeStyle=elbowEdgeStyle;elbow=vertical;" edge="1" parent="LXJ5yl4IXgk1Zmkm7OdU-1" source="LXJ5yl4IXgk1Zmkm7OdU-14" target="LXJ5yl4IXgk1Zmkm7OdU-3">
          <mxGeometry relative="1" as="geometry">
            <mxPoint x="220" y="190" as="sourcePoint" />
            <mxPoint as="offset" />
          </mxGeometry>
        </mxCell>
        <mxCell id="LXJ5yl4IXgk1Zmkm7OdU-27" value="RenderService" style="shape=umlLifeline;perimeter=lifelinePerimeter;whiteSpace=wrap;html=1;container=1;collapsible=0;recursiveResize=0;outlineConnect=0;rounded=1;shadow=0;comic=0;labelBackgroundColor=none;strokeWidth=1;fontFamily=Verdana;fontSize=12;align=center;" vertex="1" parent="LXJ5yl4IXgk1Zmkm7OdU-1">
          <mxGeometry x="370" y="80" width="120" height="580" as="geometry" />
        </mxCell>
        <mxCell id="ivEprQYZ28UPZhDatyNq-3" value="&lt;div style=&quot;color: rgb(255, 255, 255); background-color: rgb(0, 0, 0); font-family: Menlo, Monaco, &amp;quot;Courier New&amp;quot;, monospace; line-height: 18px; white-space-collapse: preserve;&quot;&gt;&lt;div style=&quot;line-height: 18px;&quot;&gt;&lt;span style=&quot;color: #dcdcaa;&quot;&gt;assembleBidResponse&lt;/span&gt;&lt;/div&gt;&lt;/div&gt;" style="html=1;verticalAlign=bottom;endArrow=block;entryX=0;entryY=0;labelBackgroundColor=none;fontFamily=Verdana;fontSize=12;edgeStyle=elbowEdgeStyle;elbow=vertical;" edge="1" parent="LXJ5yl4IXgk1Zmkm7OdU-27">
          <mxGeometry y="10" relative="1" as="geometry">
            <mxPoint x="-75" y="140" as="sourcePoint" />
            <mxPoint as="offset" />
            <mxPoint x="55" y="140" as="targetPoint" />
          </mxGeometry>
        </mxCell>
        <mxCell id="ivEprQYZ28UPZhDatyNq-4" value="return" style="html=1;verticalAlign=bottom;endArrow=open;dashed=1;endSize=8;labelBackgroundColor=none;fontFamily=Verdana;fontSize=12;edgeStyle=elbowEdgeStyle;elbow=vertical;" edge="1" parent="LXJ5yl4IXgk1Zmkm7OdU-27">
          <mxGeometry relative="1" as="geometry">
            <mxPoint x="-75" y="500" as="targetPoint" />
            <Array as="points">
              <mxPoint x="-20" y="500" />
              <mxPoint x="-40" y="480" />
              <mxPoint y="460" />
              <mxPoint x="30" y="460" />
            </Array>
            <mxPoint x="55" y="500" as="sourcePoint" />
          </mxGeometry>
        </mxCell>
        <mxCell id="LXJ5yl4IXgk1Zmkm7OdU-21" value="&lt;div style=&quot;color: rgb(255, 255, 255); background-color: rgb(0, 0, 0); font-family: Menlo, Monaco, &amp;quot;Courier New&amp;quot;, monospace; line-height: 18px; white-space-collapse: preserve;&quot;&gt;&lt;span style=&quot;color: rgb(220, 220, 170);&quot;&gt;BuildAdditionalParameters&lt;/span&gt;&lt;/div&gt;" style="html=1;verticalAlign=bottom;endArrow=block;entryX=0;entryY=0;labelBackgroundColor=none;fontFamily=Verdana;fontSize=12;" edge="1" parent="LXJ5yl4IXgk1Zmkm7OdU-1" source="LXJ5yl4IXgk1Zmkm7OdU-6" target="LXJ5yl4IXgk1Zmkm7OdU-12">
          <mxGeometry x="0.3077" y="-20" relative="1" as="geometry">
            <mxPoint x="730" y="240" as="sourcePoint" />
            <mxPoint as="offset" />
          </mxGeometry>
        </mxCell>
        <mxCell id="LXJ5yl4IXgk1Zmkm7OdU-22" value="pbap" style="html=1;verticalAlign=bottom;endArrow=open;dashed=1;endSize=8;exitX=0;exitY=0.95;labelBackgroundColor=none;fontFamily=Verdana;fontSize=12;" edge="1" parent="LXJ5yl4IXgk1Zmkm7OdU-1" source="LXJ5yl4IXgk1Zmkm7OdU-12" target="LXJ5yl4IXgk1Zmkm7OdU-6">
          <mxGeometry relative="1" as="geometry">
            <mxPoint x="730" y="316" as="targetPoint" />
          </mxGeometry>
        </mxCell>
        <mxCell id="ivEprQYZ28UPZhDatyNq-2" value="return" style="html=1;verticalAlign=bottom;endArrow=open;dashed=1;endSize=8;labelBackgroundColor=none;fontFamily=Verdana;fontSize=12;edgeStyle=elbowEdgeStyle;elbow=vertical;entryX=0.533;entryY=0.826;entryDx=0;entryDy=0;entryPerimeter=0;" edge="1" parent="LXJ5yl4IXgk1Zmkm7OdU-1" source="LXJ5yl4IXgk1Zmkm7OdU-10" target="LXJ5yl4IXgk1Zmkm7OdU-27">
          <mxGeometry relative="1" as="geometry">
            <mxPoint x="440" y="559" as="targetPoint" />
            <Array as="points">
              <mxPoint x="480" y="559" />
              <mxPoint x="460" y="539" />
              <mxPoint x="500" y="519" />
              <mxPoint x="530" y="519" />
            </Array>
            <mxPoint x="555" y="559" as="sourcePoint" />
          </mxGeometry>
        </mxCell>
        <mxCell id="LXJ5yl4IXgk1Zmkm7OdU-15" value="return" style="html=1;verticalAlign=bottom;endArrow=open;dashed=1;endSize=8;labelBackgroundColor=none;fontFamily=Verdana;fontSize=12;edgeStyle=elbowEdgeStyle;elbow=vertical;" edge="1" parent="LXJ5yl4IXgk1Zmkm7OdU-1">
          <mxGeometry relative="1" as="geometry">
            <mxPoint x="155" y="620" as="targetPoint" />
            <Array as="points">
              <mxPoint x="210" y="620" />
              <mxPoint x="190" y="600" />
              <mxPoint x="230" y="580" />
              <mxPoint x="260" y="580" />
            </Array>
            <mxPoint x="285" y="620" as="sourcePoint" />
          </mxGeometry>
        </mxCell>
        <mxCell id="ivEprQYZ28UPZhDatyNq-7" value="Logger" style="shape=umlLifeline;perimeter=lifelinePerimeter;whiteSpace=wrap;html=1;container=1;collapsible=0;recursiveResize=0;outlineConnect=0;rounded=1;shadow=0;comic=0;labelBackgroundColor=none;strokeWidth=1;fontFamily=Verdana;fontSize=12;align=center;" vertex="1" parent="LXJ5yl4IXgk1Zmkm7OdU-1">
          <mxGeometry x="810" y="80" width="100" height="800" as="geometry" />
        </mxCell>
        <mxCell id="ivEprQYZ28UPZhDatyNq-8" value="" style="html=1;points=[];perimeter=orthogonalPerimeter;rounded=0;shadow=0;comic=0;labelBackgroundColor=none;strokeWidth=1;fontFamily=Verdana;fontSize=12;align=center;" vertex="1" parent="ivEprQYZ28UPZhDatyNq-7">
          <mxGeometry x="45" y="600" width="10" height="200" as="geometry" />
        </mxCell>
        <mxCell id="ivEprQYZ28UPZhDatyNq-9" value="&lt;div style=&quot;background-color: rgb(0, 0, 0); font-family: Menlo, Monaco, &amp;quot;Courier New&amp;quot;, monospace; line-height: 18px; white-space-collapse: preserve;&quot;&gt;&lt;font color=&quot;#dcdcaa&quot;&gt;GET&lt;/font&gt;&lt;/div&gt;" style="html=1;verticalAlign=bottom;endArrow=block;labelBackgroundColor=none;fontFamily=Verdana;fontSize=12;edgeStyle=elbowEdgeStyle;elbow=vertical;" edge="1" parent="LXJ5yl4IXgk1Zmkm7OdU-1">
          <mxGeometry relative="1" as="geometry">
            <mxPoint x="10" y="680" as="sourcePoint" />
            <mxPoint as="offset" />
            <mxPoint x="850" y="680" as="targetPoint" />
          </mxGeometry>
        </mxCell>
        <mxCell id="ivEprQYZ28UPZhDatyNq-10" value="Logging" style="shape=umlLifeline;perimeter=lifelinePerimeter;whiteSpace=wrap;html=1;container=1;collapsible=0;recursiveResize=0;outlineConnect=0;rounded=1;shadow=0;comic=0;labelBackgroundColor=none;strokeWidth=1;fontFamily=Verdana;fontSize=12;align=center;" vertex="1" parent="LXJ5yl4IXgk1Zmkm7OdU-1">
          <mxGeometry x="930" y="80" width="100" height="770" as="geometry" />
        </mxCell>
        <mxCell id="ivEprQYZ28UPZhDatyNq-11" value="" style="html=1;points=[];perimeter=orthogonalPerimeter;rounded=0;shadow=0;comic=0;labelBackgroundColor=none;strokeWidth=1;fontFamily=Verdana;fontSize=12;align=center;" vertex="1" parent="ivEprQYZ28UPZhDatyNq-10">
          <mxGeometry x="45" y="630" width="10" height="140" as="geometry" />
        </mxCell>
        <mxCell id="ivEprQYZ28UPZhDatyNq-16" value="" style="endArrow=classic;html=1;rounded=0;" edge="1" parent="ivEprQYZ28UPZhDatyNq-10" target="ivEprQYZ28UPZhDatyNq-14">
          <mxGeometry width="50" height="50" relative="1" as="geometry">
            <mxPoint x="60" y="720" as="sourcePoint" />
            <mxPoint x="110" y="670" as="targetPoint" />
          </mxGeometry>
        </mxCell>
        <mxCell id="ivEprQYZ28UPZhDatyNq-17" value="&lt;div style=&quot;color: rgb(255, 255, 255); background-color: rgb(0, 0, 0); font-family: Menlo, Monaco, &amp;quot;Courier New&amp;quot;, monospace; font-size: 12px; line-height: 18px; white-space-collapse: preserve;&quot;&gt;&lt;span style=&quot;color: #dcdcaa;&quot;&gt;LogLoggerRequest&lt;/span&gt;&lt;/div&gt;" style="edgeLabel;html=1;align=center;verticalAlign=middle;resizable=0;points=[];" vertex="1" connectable="0" parent="ivEprQYZ28UPZhDatyNq-16">
          <mxGeometry x="0.0209" y="-2" relative="1" as="geometry">
            <mxPoint y="-22" as="offset" />
          </mxGeometry>
        </mxCell>
        <mxCell id="ivEprQYZ28UPZhDatyNq-13" value="&lt;div style=&quot;color: rgb(255, 255, 255); background-color: rgb(0, 0, 0); font-family: Menlo, Monaco, &amp;quot;Courier New&amp;quot;, monospace; line-height: 18px; white-space-collapse: preserve;&quot;&gt;&lt;div style=&quot;line-height: 18px;&quot;&gt;&lt;div style=&quot;line-height: 18px;&quot;&gt;&lt;span style=&quot;color: #dcdcaa;&quot;&gt;NewPerfMessage&lt;/span&gt;&lt;/div&gt;&lt;/div&gt;&lt;/div&gt;" style="html=1;verticalAlign=bottom;endArrow=block;labelBackgroundColor=none;fontFamily=Verdana;fontSize=12;elbow=vertical;edgeStyle=orthogonalEdgeStyle;curved=1;entryX=1;entryY=0.286;entryPerimeter=0;exitX=1.038;exitY=0.345;exitPerimeter=0;" edge="1" parent="ivEprQYZ28UPZhDatyNq-10">
          <mxGeometry x="-0.2334" y="10" relative="1" as="geometry">
            <mxPoint x="55.003333333333444" y="640" as="sourcePoint" />
            <mxPoint x="60.003333333333444" y="678.3333333333334" as="targetPoint" />
            <Array as="points">
              <mxPoint x="109.67000000000007" y="640" />
              <mxPoint x="109.67000000000007" y="678" />
            </Array>
            <mxPoint x="-10" y="-10" as="offset" />
          </mxGeometry>
        </mxCell>
        <mxCell id="ivEprQYZ28UPZhDatyNq-19" value="return" style="html=1;verticalAlign=bottom;endArrow=open;dashed=1;endSize=8;labelBackgroundColor=none;fontFamily=Verdana;fontSize=12;edgeStyle=elbowEdgeStyle;elbow=vertical;" edge="1" parent="ivEprQYZ28UPZhDatyNq-10">
          <mxGeometry relative="1" as="geometry">
            <mxPoint x="-60" y="760" as="targetPoint" />
            <Array as="points">
              <mxPoint x="-5" y="760" />
              <mxPoint x="-25" y="740" />
              <mxPoint x="15" y="720" />
              <mxPoint x="45" y="720" />
            </Array>
            <mxPoint x="50" y="760" as="sourcePoint" />
          </mxGeometry>
        </mxCell>
        <mxCell id="ivEprQYZ28UPZhDatyNq-12" value="&lt;div style=&quot;color: rgb(255, 255, 255); background-color: rgb(0, 0, 0); font-family: Menlo, Monaco, &amp;quot;Courier New&amp;quot;, monospace; line-height: 18px; white-space-collapse: preserve;&quot;&gt;&lt;div style=&quot;line-height: 18px;&quot;&gt;&lt;span style=&quot;color: #dcdcaa;&quot;&gt;LogPerf&lt;/span&gt;&lt;/div&gt;&lt;/div&gt;" style="html=1;verticalAlign=bottom;endArrow=block;labelBackgroundColor=none;fontFamily=Verdana;fontSize=12;edgeStyle=elbowEdgeStyle;elbow=vertical;" edge="1" parent="LXJ5yl4IXgk1Zmkm7OdU-1">
          <mxGeometry x="0.4644" y="20" relative="1" as="geometry">
            <mxPoint x="950" y="710" as="sourcePoint" />
            <mxPoint as="offset" />
            <mxPoint x="980" y="710" as="targetPoint" />
            <Array as="points">
              <mxPoint x="860" y="710" />
              <mxPoint x="985" y="710" />
            </Array>
          </mxGeometry>
        </mxCell>
        <mxCell id="ivEprQYZ28UPZhDatyNq-14" value="transaction/&lt;div&gt;request&lt;/div&gt;" style="shape=umlLifeline;perimeter=lifelinePerimeter;whiteSpace=wrap;html=1;container=1;collapsible=0;recursiveResize=0;outlineConnect=0;rounded=1;shadow=0;comic=0;labelBackgroundColor=none;strokeWidth=1;fontFamily=Verdana;fontSize=12;align=center;" vertex="1" parent="LXJ5yl4IXgk1Zmkm7OdU-1">
          <mxGeometry x="1060" y="80" width="100" height="770" as="geometry" />
        </mxCell>
        <mxCell id="ivEprQYZ28UPZhDatyNq-15" value="" style="html=1;points=[];perimeter=orthogonalPerimeter;rounded=0;shadow=0;comic=0;labelBackgroundColor=none;strokeWidth=1;fontFamily=Verdana;fontSize=12;align=center;" vertex="1" parent="ivEprQYZ28UPZhDatyNq-14">
          <mxGeometry x="45" y="630" width="10" height="120" as="geometry" />
        </mxCell>
        <mxCell id="ivEprQYZ28UPZhDatyNq-18" value="return" style="html=1;verticalAlign=bottom;endArrow=open;dashed=1;endSize=8;labelBackgroundColor=none;fontFamily=Verdana;fontSize=12;edgeStyle=elbowEdgeStyle;elbow=vertical;" edge="1" parent="ivEprQYZ28UPZhDatyNq-14">
          <mxGeometry relative="1" as="geometry">
            <mxPoint x="-75" y="750" as="targetPoint" />
            <Array as="points">
              <mxPoint x="-20" y="750" />
              <mxPoint x="-40" y="730" />
              <mxPoint y="710" />
              <mxPoint x="30" y="710" />
            </Array>
            <mxPoint x="55" y="750" as="sourcePoint" />
          </mxGeometry>
        </mxCell>
        <mxCell id="ivEprQYZ28UPZhDatyNq-20" value="return" style="html=1;verticalAlign=bottom;endArrow=open;dashed=1;endSize=8;labelBackgroundColor=none;fontFamily=Verdana;fontSize=12;edgeStyle=elbowEdgeStyle;elbow=vertical;" edge="1" parent="LXJ5yl4IXgk1Zmkm7OdU-1">
          <mxGeometry relative="1" as="geometry">
            <mxPoint x="10" y="879" as="targetPoint" />
            <Array as="points">
              <mxPoint x="65" y="879" />
              <mxPoint x="45" y="859" />
              <mxPoint x="85" y="839" />
              <mxPoint x="115" y="839" />
            </Array>
            <mxPoint x="859.5" y="879" as="sourcePoint" />
          </mxGeometry>
        </mxCell>
        <mxCell id="fGvNzW7enzNhFibmYtAa-0" value="Transaction.Logger" style="shape=umlLifeline;perimeter=lifelinePerimeter;whiteSpace=wrap;html=1;container=1;collapsible=0;recursiveResize=0;outlineConnect=0;rounded=1;shadow=0;comic=0;labelBackgroundColor=none;strokeWidth=1;fontFamily=Verdana;fontSize=12;align=center;" vertex="1" parent="LXJ5yl4IXgk1Zmkm7OdU-1">
          <mxGeometry x="1190" y="80" width="120" height="800" as="geometry" />
        </mxCell>
        <mxCell id="fGvNzW7enzNhFibmYtAa-1" value="&lt;div style=&quot;color: rgb(255, 255, 255); background-color: rgb(0, 0, 0); font-family: Menlo, Monaco, &amp;quot;Courier New&amp;quot;, monospace; font-size: 12px; line-height: 18px; white-space-collapse: preserve;&quot;&gt;&lt;span style=&quot;color: #9cdcfe;&quot;&gt;Perf&lt;/span&gt;.&lt;span style=&quot;color: #dcdcaa;&quot;&gt;Log&lt;/span&gt;&lt;/div&gt;" style="endArrow=classic;html=1;rounded=0;exitX=0.85;exitY=0.92;exitDx=0;exitDy=0;exitPerimeter=0;" edge="1" parent="LXJ5yl4IXgk1Zmkm7OdU-1" source="ivEprQYZ28UPZhDatyNq-8" target="fGvNzW7enzNhFibmYtAa-0">
          <mxGeometry x="0.0181" y="14" width="50" height="50" relative="1" as="geometry">
            <mxPoint x="680" y="940" as="sourcePoint" />
            <mxPoint x="730" y="890" as="targetPoint" />
            <mxPoint x="1" as="offset" />
          </mxGeometry>
        </mxCell>
      </root>
    </mxGraphModel>
  </diagram>
  <diagram id="4VsZyzv64lBf8CHypWs2" name="ETL">
    <mxGraphModel dx="1306" dy="716" grid="1" gridSize="10" guides="1" tooltips="1" connect="1" arrows="1" fold="1" page="1" pageScale="1" pageWidth="850" pageHeight="1100" math="0" shadow="0">
      <root>
        <mxCell id="0" />
        <mxCell id="1" parent="0" />
        <mxCell id="4DFmzQRINOaYTtY-YW1q-1" value="AWS S3: NoBid log" style="outlineConnect=0;dashed=0;verticalLabelPosition=bottom;verticalAlign=top;align=center;html=1;shape=mxgraph.aws3.s3;fillColor=#E05243;gradientColor=none;" vertex="1" parent="1">
          <mxGeometry x="270" y="140" width="76.5" height="93" as="geometry" />
        </mxCell>
        <mxCell id="4DFmzQRINOaYTtY-YW1q-2" value="Google Cloud&lt;br&gt;Storage" style="sketch=0;html=1;verticalAlign=top;labelPosition=center;verticalLabelPosition=bottom;align=center;spacingTop=-6;fontSize=11;fontStyle=1;fontColor=#999999;shape=image;aspect=fixed;imageAspect=0;image=data:image/svg+xml,PHN2ZyB4bWxucz0iaHR0cDovL3d3dy53My5vcmcvMjAwMC9zdmciIHhtbG5zOnY9Imh0dHBzOi8vdmVjdGEuaW8vbmFubyIgd2lkdGg9IjIwIiBoZWlnaHQ9IjE2IiB2aWV3Qm94PSIwIDAgMjAgMTYiPiYjeGE7CTxzdHlsZSB0eXBlPSJ0ZXh0L2NzcyI+JiN4YTsJLnN0MHtmaWxsOiM0Mjg1ZjQ7fSYjeGE7CS5zdDF7ZmlsbDojNjY5ZGY2O30mI3hhOwkuc3Qye2ZpbGw6I2FlY2JmYTt9JiN4YTsJLnN0M3tmaWxsOiNmZmY7fSYjeGE7CTwvc3R5bGU+JiN4YTsJPHBhdGggY2xhc3M9InN0MiIgZD0iTTAgMGgyMHY3SDB6Ii8+JiN4YTsJPHBhdGggY2xhc3M9InN0MSIgZD0iTTE4IDBoMnY3aC0yeiIvPiYjeGE7CTxwYXRoIGNsYXNzPSJzdDAiIGQ9Ik0xOCA3bDItN2gtMnoiLz4mI3hhOwk8cGF0aCBjbGFzcz0ic3QxIiBkPSJNMCAwaDJ2N0gweiIvPiYjeGE7CTxnIGNsYXNzPSJzdDMiPiYjeGE7CQk8cGF0aCBkPSJNNCAzaDZ2MUg0eiIvPiYjeGE7CQk8cmVjdCB4PSIxMyIgeT0iMiIgd2lkdGg9IjMiIGhlaWdodD0iMyIgcng9IjEuNSIvPiYjeGE7CTwvZz4mI3hhOwk8cGF0aCBjbGFzcz0ic3QyIiBkPSJNMCA5aDIwdjdIMHoiLz4mI3hhOwk8cGF0aCBjbGFzcz0ic3QxIiBkPSJNMTggOWgydjdoLTJ6Ii8+JiN4YTsJPHBhdGggY2xhc3M9InN0MCIgZD0iTTE4IDE2bDItN2gtMnoiLz4mI3hhOwk8cGF0aCBjbGFzcz0ic3QxIiBkPSJNMCA5aDJ2N0gweiIvPiYjeGE7CTxnIGNsYXNzPSJzdDMiPiYjeGE7CQk8cGF0aCBkPSJNNCAxMmg2djFINHoiLz4mI3hhOwkJPHJlY3QgeD0iMTMiIHk9IjExIiB3aWR0aD0iMyIgaGVpZ2h0PSIzIiByeD0iMS41Ii8+JiN4YTsJPC9nPiYjeGE7PC9zdmc+;" vertex="1" parent="1">
          <mxGeometry x="750" y="302.01" width="74.74" height="60.5" as="geometry" />
        </mxCell>
        <mxCell id="4DFmzQRINOaYTtY-YW1q-11" value="" style="edgeStyle=orthogonalEdgeStyle;rounded=0;orthogonalLoop=1;jettySize=auto;html=1;" edge="1" parent="1" source="4DFmzQRINOaYTtY-YW1q-3" target="4DFmzQRINOaYTtY-YW1q-1">
          <mxGeometry relative="1" as="geometry" />
        </mxCell>
        <mxCell id="4DFmzQRINOaYTtY-YW1q-3" value="Mediator NoBid" style="sketch=0;outlineConnect=0;fontColor=#232F3E;gradientColor=none;strokeColor=#ffffff;fillColor=#232F3E;dashed=0;verticalLabelPosition=middle;verticalAlign=bottom;align=center;html=1;whiteSpace=wrap;fontSize=10;fontStyle=1;spacing=3;shape=mxgraph.aws4.productIcon;prIcon=mxgraph.aws4.data_pipeline;" vertex="1" parent="1">
          <mxGeometry x="90" y="131.5" width="80" height="110" as="geometry" />
        </mxCell>
        <mxCell id="4DFmzQRINOaYTtY-YW1q-12" value="" style="edgeStyle=orthogonalEdgeStyle;rounded=0;orthogonalLoop=1;jettySize=auto;html=1;" edge="1" parent="1" source="4DFmzQRINOaYTtY-YW1q-4" target="4DFmzQRINOaYTtY-YW1q-6">
          <mxGeometry relative="1" as="geometry" />
        </mxCell>
        <mxCell id="4DFmzQRINOaYTtY-YW1q-4" value="Bidder" style="sketch=0;outlineConnect=0;fontColor=#232F3E;gradientColor=none;strokeColor=#ffffff;fillColor=#232F3E;dashed=0;verticalLabelPosition=middle;verticalAlign=bottom;align=center;html=1;whiteSpace=wrap;fontSize=10;fontStyle=1;spacing=3;shape=mxgraph.aws4.productIcon;prIcon=mxgraph.aws4.data_pipeline;" vertex="1" parent="1">
          <mxGeometry x="90" y="278.25" width="80" height="110" as="geometry" />
        </mxCell>
        <mxCell id="4DFmzQRINOaYTtY-YW1q-13" value="" style="edgeStyle=orthogonalEdgeStyle;rounded=0;orthogonalLoop=1;jettySize=auto;html=1;" edge="1" parent="1" source="4DFmzQRINOaYTtY-YW1q-5" target="4DFmzQRINOaYTtY-YW1q-8">
          <mxGeometry relative="1" as="geometry" />
        </mxCell>
        <mxCell id="4DFmzQRINOaYTtY-YW1q-5" value="Logger" style="sketch=0;outlineConnect=0;fontColor=#232F3E;gradientColor=none;strokeColor=#ffffff;fillColor=#232F3E;dashed=0;verticalLabelPosition=middle;verticalAlign=bottom;align=center;html=1;whiteSpace=wrap;fontSize=10;fontStyle=1;spacing=3;shape=mxgraph.aws4.productIcon;prIcon=mxgraph.aws4.data_pipeline;" vertex="1" parent="1">
          <mxGeometry x="90" y="411.5" width="80" height="110" as="geometry" />
        </mxCell>
        <mxCell id="4DFmzQRINOaYTtY-YW1q-6" value="AWS S3: Bid log" style="outlineConnect=0;dashed=0;verticalLabelPosition=bottom;verticalAlign=top;align=center;html=1;shape=mxgraph.aws3.s3;fillColor=#E05243;gradientColor=none;" vertex="1" parent="1">
          <mxGeometry x="270" y="286.75" width="76.5" height="93" as="geometry" />
        </mxCell>
        <mxCell id="4DFmzQRINOaYTtY-YW1q-8" value="AWS S3: Impression Log" style="outlineConnect=0;dashed=0;verticalLabelPosition=bottom;verticalAlign=top;align=center;html=1;shape=mxgraph.aws3.s3;fillColor=#E05243;gradientColor=none;" vertex="1" parent="1">
          <mxGeometry x="270" y="420" width="76.5" height="93" as="geometry" />
        </mxCell>
        <mxCell id="4DFmzQRINOaYTtY-YW1q-16" value="" style="edgeStyle=orthogonalEdgeStyle;rounded=0;orthogonalLoop=1;jettySize=auto;html=1;" edge="1" parent="1" source="4DFmzQRINOaYTtY-YW1q-14" target="4DFmzQRINOaYTtY-YW1q-25">
          <mxGeometry relative="1" as="geometry">
            <mxPoint x="520" y="297" as="targetPoint" />
          </mxGeometry>
        </mxCell>
        <mxCell id="4DFmzQRINOaYTtY-YW1q-14" value="1. Core-event model" style="shape=cylinder3;whiteSpace=wrap;html=1;boundedLbl=1;backgroundOutline=1;size=15;fillColor=#d5e8d4;strokeColor=#82b366;" vertex="1" parent="1">
          <mxGeometry x="470.01" y="160" width="90" height="90" as="geometry" />
        </mxCell>
        <mxCell id="4DFmzQRINOaYTtY-YW1q-23" value="" style="edgeStyle=orthogonalEdgeStyle;rounded=0;orthogonalLoop=1;jettySize=auto;html=1;exitX=1;exitY=0.5;exitDx=0;exitDy=0;" edge="1" parent="1" source="4DFmzQRINOaYTtY-YW1q-25" target="4DFmzQRINOaYTtY-YW1q-17">
          <mxGeometry relative="1" as="geometry">
            <mxPoint x="539" y="333.2550000000001" as="sourcePoint" />
          </mxGeometry>
        </mxCell>
        <mxCell id="4DFmzQRINOaYTtY-YW1q-24" value="" style="edgeStyle=orthogonalEdgeStyle;rounded=0;orthogonalLoop=1;jettySize=auto;html=1;" edge="1" parent="1" source="4DFmzQRINOaYTtY-YW1q-17" target="4DFmzQRINOaYTtY-YW1q-2">
          <mxGeometry relative="1" as="geometry" />
        </mxCell>
        <mxCell id="4DFmzQRINOaYTtY-YW1q-17" value="Transfer" style="sketch=0;outlineConnect=0;fontColor=#232F3E;gradientColor=none;fillColor=#7AA116;strokeColor=none;dashed=0;verticalLabelPosition=bottom;verticalAlign=top;align=center;html=1;fontSize=12;fontStyle=0;aspect=fixed;pointerEvents=1;shape=mxgraph.aws4.iot_analytics_pipeline;" vertex="1" parent="1">
          <mxGeometry x="640" y="311.26" width="78" height="42" as="geometry" />
        </mxCell>
        <mxCell id="4DFmzQRINOaYTtY-YW1q-20" value="" style="endArrow=classic;html=1;rounded=0;entryX=0;entryY=0;entryDx=0;entryDy=0;" edge="1" parent="1" source="4DFmzQRINOaYTtY-YW1q-1" target="4DFmzQRINOaYTtY-YW1q-25">
          <mxGeometry width="50" height="50" relative="1" as="geometry">
            <mxPoint x="700" y="400" as="sourcePoint" />
            <mxPoint x="450" y="300" as="targetPoint" />
          </mxGeometry>
        </mxCell>
        <mxCell id="4DFmzQRINOaYTtY-YW1q-21" value="" style="endArrow=classic;html=1;rounded=0;exitX=1;exitY=0.5;exitDx=0;exitDy=0;exitPerimeter=0;" edge="1" parent="1" source="4DFmzQRINOaYTtY-YW1q-6" target="4DFmzQRINOaYTtY-YW1q-25">
          <mxGeometry width="50" height="50" relative="1" as="geometry">
            <mxPoint x="700" y="400" as="sourcePoint" />
            <mxPoint x="451.04999999999995" y="333.2535196094934" as="targetPoint" />
          </mxGeometry>
        </mxCell>
        <mxCell id="4DFmzQRINOaYTtY-YW1q-22" value="" style="endArrow=classic;html=1;rounded=0;exitX=1;exitY=0.5;exitDx=0;exitDy=0;exitPerimeter=0;entryX=0;entryY=1;entryDx=0;entryDy=0;" edge="1" parent="1" source="4DFmzQRINOaYTtY-YW1q-8" target="4DFmzQRINOaYTtY-YW1q-25">
          <mxGeometry width="50" height="50" relative="1" as="geometry">
            <mxPoint x="400" y="460" as="sourcePoint" />
            <mxPoint x="452.9848999999999" y="359.1567500000001" as="targetPoint" />
          </mxGeometry>
        </mxCell>
        <mxCell id="4DFmzQRINOaYTtY-YW1q-25" value="&lt;span style=&quot;color: rgb(31, 35, 40); font-family: -apple-system, &amp;quot;system-ui&amp;quot;, &amp;quot;Segoe UI&amp;quot;, &amp;quot;Noto Sans&amp;quot;, Helvetica, Arial, sans-serif, &amp;quot;Apple Color Emoji&amp;quot;, &amp;quot;Segoe UI Emoji&amp;quot;; font-size: 16px; text-align: start; background-color: rgb(255, 255, 255);&quot;&gt;2. Transformation&lt;/span&gt;" style="shape=process;whiteSpace=wrap;html=1;backgroundOutline=1;fillColor=#d5e8d4;strokeColor=#82b366;" vertex="1" parent="1">
          <mxGeometry x="430" y="303.01" width="170" height="56.99" as="geometry" />
        </mxCell>
      </root>
    </mxGraphModel>
  </diagram>
</mxfile>
